STARTFONT 2.1
FONT -Monotype-Rockwell-Bold-I-Normal--10-100-72-72-P-61-iso8859-1
SIZE 10 72 72
FONTBOUNDINGBOX 14 12 -2 -2

STARTPROPERTIES 22
FOUNDRY "Monotype"
FAMILY_NAME "Rockwell"
WEIGHT_NAME "Bold"
SLANT "I"
SETWIDTH_NAME "Normal"
ADD_STYLE_NAME ""
PIXEL_SIZE 10
POINT_SIZE 100
RESOLUTION_X 72
RESOLUTION_Y 72
SPACING "P"
AVERAGE_WIDTH 61
CHARSET_REGISTRY "iso8859"
CHARSET_ENCODING "1"
COPYRIGHT "Copyright (c) 1996 Monotype Typography Ltd."
CAP_HEIGHT 8
X_HEIGHT 5
WEIGHT 10
QUAD_WIDTH 6
DEFAULT_CHAR 32
FONT_DESCENT 2
FONT_ASCENT 10
ENDPROPERTIES

CHARS 191

STARTCHAR space
ENCODING 32
SWIDTH 250 0
DWIDTH 3 0
BBX 0 0 0 0
BITMAP
ENDCHAR

STARTCHAR exclam
ENCODING 33
SWIDTH 333 0
DWIDTH 3 0
BBX 4 7 0 0
BITMAP
30
30
60
60
60
00
C0
ENDCHAR

STARTCHAR quotedbl
ENCODING 34
SWIDTH 552 0
DWIDTH 6 0
BBX 3 3 3 4
BITMAP
A0
A0
A0
ENDCHAR

STARTCHAR numbersign
ENCODING 35
SWIDTH 668 0
DWIDTH 7 0
BBX 7 7 0 0
BITMAP
14
14
7E
28
FC
50
50
ENDCHAR

STARTCHAR dollar
ENCODING 36
SWIDTH 500 0
DWIDTH 5 0
BBX 5 9 0 -1
BITMAP
10
78
68
60
30
30
B0
F0
40
ENDCHAR

STARTCHAR percent
ENCODING 37
SWIDTH 927 0
DWIDTH 9 0
BBX 7 7 1 0
BITMAP
62
A4
A8
D6
2A
4A
8C
ENDCHAR

STARTCHAR ampersand
ENCODING 38
SWIDTH 740 0
DWIDTH 7 0
BBX 7 7 0 0
BITMAP
38
28
30
76
DC
D8
76
ENDCHAR

STARTCHAR quoteright
ENCODING 39
SWIDTH 333 0
DWIDTH 3 0
BBX 3 3 1 4
BITMAP
60
20
C0
ENDCHAR

STARTCHAR parenleft
ENCODING 40
SWIDTH 344 0
DWIDTH 3 0
BBX 4 9 1 -2
BITMAP
10
20
60
40
C0
C0
C0
40
40
ENDCHAR

STARTCHAR parenright
ENCODING 41
SWIDTH 344 0
DWIDTH 3 0
BBX 4 9 -1 -2
BITMAP
20
20
30
30
30
20
60
40
80
ENDCHAR

STARTCHAR asterisk
ENCODING 42
SWIDTH 563 0
DWIDTH 6 0
BBX 5 5 1 2
BITMAP
10
E0
78
E0
50
ENDCHAR

STARTCHAR plus
ENCODING 43
SWIDTH 668 0
DWIDTH 7 0
BBX 5 5 1 1
BITMAP
20
20
F8
20
20
ENDCHAR

STARTCHAR comma
ENCODING 44
SWIDTH 333 0
DWIDTH 3 0
BBX 3 3 -1 -2
BITMAP
60
20
C0
ENDCHAR

STARTCHAR minus
ENCODING 45
SWIDTH 668 0
DWIDTH 7 0
BBX 5 1 1 3
BITMAP
F8
ENDCHAR

STARTCHAR period
ENCODING 46
SWIDTH 333 0
DWIDTH 3 0
BBX 2 1 1 0
BITMAP
C0
ENDCHAR

STARTCHAR slash
ENCODING 47
SWIDTH 508 0
DWIDTH 5 0
BBX 6 7 0 0
BITMAP
0C
18
10
30
20
60
C0
ENDCHAR

STARTCHAR zero
ENCODING 48
SWIDTH 542 0
DWIDTH 5 0
BBX 5 7 1 0
BITMAP
30
58
58
D8
D0
D0
60
ENDCHAR

STARTCHAR one
ENCODING 49
SWIDTH 542 0
DWIDTH 5 0
BBX 5 7 1 0
BITMAP
38
18
30
30
30
60
F0
ENDCHAR

STARTCHAR two
ENCODING 50
SWIDTH 542 0
DWIDTH 5 0
BBX 5 7 1 0
BITMAP
30
58
18
30
60
D0
F0
ENDCHAR

STARTCHAR three
ENCODING 51
SWIDTH 542 0
DWIDTH 5 0
BBX 5 7 1 0
BITMAP
30
58
18
60
30
B0
E0
ENDCHAR

STARTCHAR four
ENCODING 52
SWIDTH 542 0
DWIDTH 5 0
BBX 5 7 1 0
BITMAP
18
30
50
B0
F8
60
F0
ENDCHAR

STARTCHAR five
ENCODING 53
SWIDTH 542 0
DWIDTH 5 0
BBX 5 7 1 0
BITMAP
38
28
60
70
30
B0
E0
ENDCHAR

STARTCHAR six
ENCODING 54
SWIDTH 542 0
DWIDTH 5 0
BBX 5 7 1 0
BITMAP
38
68
60
F0
D0
D0
60
ENDCHAR

STARTCHAR seven
ENCODING 55
SWIDTH 542 0
DWIDTH 5 0
BBX 5 7 1 0
BITMAP
78
D8
30
30
60
60
F0
ENDCHAR

STARTCHAR eight
ENCODING 56
SWIDTH 542 0
DWIDTH 5 0
BBX 5 7 1 0
BITMAP
38
68
68
70
B0
B0
E0
ENDCHAR

STARTCHAR nine
ENCODING 57
SWIDTH 542 0
DWIDTH 5 0
BBX 5 7 1 0
BITMAP
30
58
58
78
30
B0
E0
ENDCHAR

STARTCHAR colon
ENCODING 58
SWIDTH 333 0
DWIDTH 3 0
BBX 3 5 0 0
BITMAP
60
00
00
00
C0
ENDCHAR

STARTCHAR semicolon
ENCODING 59
SWIDTH 333 0
DWIDTH 3 0
BBX 4 7 -1 -2
BITMAP
30
00
00
00
60
20
C0
ENDCHAR

STARTCHAR less
ENCODING 60
SWIDTH 667 0
DWIDTH 7 0
BBX 5 5 1 1
BITMAP
18
70
C0
70
18
ENDCHAR

STARTCHAR equal
ENCODING 61
SWIDTH 667 0
DWIDTH 7 0
BBX 6 3 1 2
BITMAP
FC
00
FC
ENDCHAR

STARTCHAR greater
ENCODING 62
SWIDTH 667 0
DWIDTH 7 0
BBX 5 5 1 0
BITMAP
C0
70
18
70
C0
ENDCHAR

STARTCHAR question
ENCODING 63
SWIDTH 542 0
DWIDTH 5 0
BBX 4 7 1 0
BITMAP
70
B0
30
60
40
00
C0
ENDCHAR

STARTCHAR at
ENCODING 64
SWIDTH 979 0
DWIDTH 10 0
BBX 9 9 1 -2
BITMAP
3E00
4100
8E80
9680
B680
B680
9B00
4000
3F00
ENDCHAR

STARTCHAR A
ENCODING 65
SWIDTH 646 0
DWIDTH 6 0
BBX 8 7 -1 0
BITMAP
1F
0E
1E
36
3E
66
E7
ENDCHAR

STARTCHAR B
ENCODING 66
SWIDTH 667 0
DWIDTH 7 0
BBX 8 7 0 0
BITMAP
3E
1B
33
3E
36
66
FC
ENDCHAR

STARTCHAR C
ENCODING 67
SWIDTH 771 0
DWIDTH 8 0
BBX 8 7 1 0
BITMAP
3F
63
C0
C0
C0
C6
7C
ENDCHAR

STARTCHAR D
ENCODING 68
SWIDTH 760 0
DWIDTH 8 0
BBX 9 7 0 0
BITMAP
3F00
1980
3180
3300
3300
6600
FC00
ENDCHAR

STARTCHAR E
ENCODING 69
SWIDTH 635 0
DWIDTH 6 0
BBX 8 7 0 0
BITMAP
3F
1B
30
3C
30
66
FC
ENDCHAR

STARTCHAR F
ENCODING 70
SWIDTH 583 0
DWIDTH 6 0
BBX 8 7 0 0
BITMAP
3F
1B
30
3C
30
60
F0
ENDCHAR

STARTCHAR G
ENCODING 71
SWIDTH 813 0
DWIDTH 8 0
BBX 8 7 1 0
BITMAP
3F
63
C0
C0
CE
C6
7C
ENDCHAR

STARTCHAR H
ENCODING 72
SWIDTH 740 0
DWIDTH 7 0
BBX 9 7 0 0
BITMAP
3B80
1B00
3600
3E00
3600
6C00
EE00
ENDCHAR

STARTCHAR I
ENCODING 73
SWIDTH 396 0
DWIDTH 4 0
BBX 6 7 0 0
BITMAP
3C
18
30
30
30
60
F0
ENDCHAR

STARTCHAR J
ENCODING 74
SWIDTH 375 0
DWIDTH 4 0
BBX 7 9 -1 -2
BITMAP
1E
0C
18
18
18
30
30
60
C0
ENDCHAR

STARTCHAR K
ENCODING 75
SWIDTH 708 0
DWIDTH 7 0
BBX 9 7 0 0
BITMAP
3B80
1600
3C00
3800
2800
6C00
EE00
ENDCHAR

STARTCHAR L
ENCODING 76
SWIDTH 604 0
DWIDTH 6 0
BBX 7 7 0 0
BITMAP
3C
18
30
30
36
66
FC
ENDCHAR

STARTCHAR M
ENCODING 77
SWIDTH 1021 0
DWIDTH 10 0
BBX 13 7 -1 0
BITMAP
3CF8
1CF0
35A0
3560
3760
66C0
F5E0
ENDCHAR

STARTCHAR N
ENCODING 78
SWIDTH 792 0
DWIDTH 8 0
BBX 11 7 -1 0
BITMAP
39E0
18C0
3D80
3580
3780
6300
F300
ENDCHAR

STARTCHAR O
ENCODING 79
SWIDTH 823 0
DWIDTH 8 0
BBX 8 7 1 0
BITMAP
3E
63
C3
C3
C3
C6
7C
ENDCHAR

STARTCHAR P
ENCODING 80
SWIDTH 646 0
DWIDTH 6 0
BBX 8 7 0 0
BITMAP
3E
1B
33
3E
30
60
F0
ENDCHAR

STARTCHAR Q
ENCODING 81
SWIDTH 823 0
DWIDTH 8 0
BBX 8 9 1 -2
BITMAP
3E
63
C3
C3
C3
C6
7C
38
4C
ENDCHAR

STARTCHAR R
ENCODING 82
SWIDTH 698 0
DWIDTH 7 0
BBX 8 7 0 0
BITMAP
3E
1B
33
3E
34
66
F7
ENDCHAR

STARTCHAR S
ENCODING 83
SWIDTH 510 0
DWIDTH 5 0
BBX 7 7 0 0
BITMAP
1E
36
30
18
18
D8
F0
ENDCHAR

STARTCHAR T
ENCODING 84
SWIDTH 688 0
DWIDTH 7 0
BBX 9 7 0 0
BITMAP
7F80
4D80
D980
1800
1800
3000
7800
ENDCHAR

STARTCHAR U
ENCODING 85
SWIDTH 708 0
DWIDTH 7 0
BBX 9 7 1 0
BITMAP
7B80
3300
6600
6600
CC00
CC00
7800
ENDCHAR

STARTCHAR V
ENCODING 86
SWIDTH 646 0
DWIDTH 6 0
BBX 8 7 1 0
BITMAP
F7
66
6C
68
78
70
60
ENDCHAR

STARTCHAR W
ENCODING 87
SWIDTH 896 0
DWIDTH 9 0
BBX 11 7 1 0
BITMAP
EDE0
6CC0
6D80
6D00
7F00
6E00
6C00
ENDCHAR

STARTCHAR X
ENCODING 88
SWIDTH 677 0
DWIDTH 7 0
BBX 10 7 -1 0
BITMAP
3BC0
1B00
0E00
0C00
1C00
3600
F700
ENDCHAR

STARTCHAR Y
ENCODING 89
SWIDTH 625 0
DWIDTH 6 0
BBX 8 7 1 0
BITMAP
E7
66
6C
38
30
60
F0
ENDCHAR

STARTCHAR Z
ENCODING 90
SWIDTH 604 0
DWIDTH 6 0
BBX 7 7 0 0
BITMAP
1E
36
0C
18
30
6C
F8
ENDCHAR

STARTCHAR bracketleft
ENCODING 91
SWIDTH 385 0
DWIDTH 4 0
BBX 5 9 1 -2
BITMAP
38
30
30
60
60
60
C0
C0
E0
ENDCHAR

STARTCHAR backslash
ENCODING 92
SWIDTH 508 0
DWIDTH 5 0
BBX 5 7 1 0
BITMAP
80
C0
40
60
20
30
18
ENDCHAR

STARTCHAR bracketright
ENCODING 93
SWIDTH 385 0
DWIDTH 4 0
BBX 5 9 -1 -2
BITMAP
38
18
18
30
30
30
60
60
E0
ENDCHAR

STARTCHAR asciicircum
ENCODING 94
SWIDTH 583 0
DWIDTH 6 0
BBX 5 4 1 3
BITMAP
20
70
50
D8
ENDCHAR

STARTCHAR underscore
ENCODING 95
SWIDTH 500 0
DWIDTH 5 0
BBX 5 1 0 -2
BITMAP
F8
ENDCHAR

STARTCHAR quoteleft
ENCODING 96
SWIDTH 333 0
DWIDTH 3 0
BBX 3 3 1 4
BITMAP
60
80
C0
ENDCHAR

STARTCHAR a
ENCODING 97
SWIDTH 573 0
DWIDTH 6 0
BBX 6 5 0 0
BITMAP
78
0C
7C
D8
6C
ENDCHAR

STARTCHAR b
ENCODING 98
SWIDTH 604 0
DWIDTH 6 0
BBX 7 7 -1 0
BITMAP
38
18
3C
36
66
6C
F8
ENDCHAR

STARTCHAR c
ENCODING 99
SWIDTH 531 0
DWIDTH 5 0
BBX 6 5 0 0
BITMAP
38
6C
C0
D8
70
ENDCHAR

STARTCHAR d
ENCODING 100
SWIDTH 604 0
DWIDTH 6 0
BBX 7 7 0 0
BITMAP
0E
06
3C
6C
CC
D8
7C
ENDCHAR

STARTCHAR e
ENCODING 101
SWIDTH 552 0
DWIDTH 6 0
BBX 6 5 0 0
BITMAP
38
6C
FC
C0
78
ENDCHAR

STARTCHAR f
ENCODING 102
SWIDTH 333 0
DWIDTH 3 0
BBX 6 7 -1 0
BITMAP
1C
30
78
30
30
60
F0
ENDCHAR

STARTCHAR g
ENCODING 103
SWIDTH 604 0
DWIDTH 6 0
BBX 7 7 0 -2
BITMAP
3E
6C
CC
D8
78
18
F0
ENDCHAR

STARTCHAR h
ENCODING 104
SWIDTH 604 0
DWIDTH 6 0
BBX 6 7 0 0
BITMAP
70
30
78
6C
6C
D8
DC
ENDCHAR

STARTCHAR i
ENCODING 105
SWIDTH 333 0
DWIDTH 3 0
BBX 5 7 -1 0
BITMAP
18
00
70
30
30
60
F0
ENDCHAR

STARTCHAR j
ENCODING 106
SWIDTH 323 0
DWIDTH 3 0
BBX 5 9 -1 -2
BITMAP
18
00
70
30
30
60
60
60
C0
ENDCHAR

STARTCHAR k
ENCODING 107
SWIDTH 573 0
DWIDTH 6 0
BBX 7 7 -1 0
BITMAP
38
18
36
3C
38
6C
F6
ENDCHAR

STARTCHAR l
ENCODING 108
SWIDTH 333 0
DWIDTH 3 0
BBX 5 7 -1 0
BITMAP
38
18
30
30
30
60
F0
ENDCHAR

STARTCHAR m
ENCODING 109
SWIDTH 969 0
DWIDTH 10 0
BBX 10 5 0 0
BITMAP
6D80
36C0
36C0
6D80
EDC0
ENDCHAR

STARTCHAR n
ENCODING 110
SWIDTH 604 0
DWIDTH 6 0
BBX 6 5 0 0
BITMAP
D8
6C
6C
D8
DC
ENDCHAR

STARTCHAR o
ENCODING 111
SWIDTH 573 0
DWIDTH 6 0
BBX 6 5 0 0
BITMAP
38
6C
CC
D8
70
ENDCHAR

STARTCHAR p
ENCODING 112
SWIDTH 604 0
DWIDTH 6 0
BBX 7 7 -1 -2
BITMAP
7C
36
36
6C
78
60
F0
ENDCHAR

STARTCHAR q
ENCODING 113
SWIDTH 604 0
DWIDTH 6 0
BBX 7 7 0 -2
BITMAP
3E
6C
CC
D8
78
30
78
ENDCHAR

STARTCHAR r
ENCODING 114
SWIDTH 417 0
DWIDTH 4 0
BBX 6 5 -1 0
BITMAP
6C
30
30
60
E0
ENDCHAR

STARTCHAR s
ENCODING 115
SWIDTH 490 0
DWIDTH 5 0
BBX 5 5 0 0
BITMAP
38
60
70
30
E0
ENDCHAR

STARTCHAR t
ENCODING 116
SWIDTH 333 0
DWIDTH 3 0
BBX 5 7 0 0
BITMAP
30
30
78
60
60
C0
60
ENDCHAR

STARTCHAR u
ENCODING 117
SWIDTH 604 0
DWIDTH 6 0
BBX 6 5 0 0
BITMAP
EC
6C
D8
D8
6C
ENDCHAR

STARTCHAR v
ENCODING 118
SWIDTH 510 0
DWIDTH 5 0
BBX 7 5 0 0
BITMAP
EE
6C
68
70
60
ENDCHAR

STARTCHAR w
ENCODING 119
SWIDTH 760 0
DWIDTH 8 0
BBX 9 5 0 0
BITMAP
EB80
6B00
6A00
7C00
6C00
ENDCHAR

STARTCHAR x
ENCODING 120
SWIDTH 500 0
DWIDTH 5 0
BBX 6 5 0 0
BITMAP
6C
38
30
70
D8
ENDCHAR

STARTCHAR y
ENCODING 121
SWIDTH 563 0
DWIDTH 6 0
BBX 8 7 -1 -2
BITMAP
77
36
34
38
30
30
E0
ENDCHAR

STARTCHAR z
ENCODING 122
SWIDTH 479 0
DWIDTH 5 0
BBX 5 5 0 0
BITMAP
78
58
30
68
F0
ENDCHAR

STARTCHAR braceleft
ENCODING 123
SWIDTH 385 0
DWIDTH 4 0
BBX 3 9 2 -2
BITMAP
20
40
40
40
80
40
40
40
20
ENDCHAR

STARTCHAR bar
ENCODING 124
SWIDTH 611 0
DWIDTH 6 0
BBX 1 9 3 -2
BITMAP
80
80
80
80
80
80
80
80
80
ENDCHAR

STARTCHAR braceright
ENCODING 125
SWIDTH 385 0
DWIDTH 4 0
BBX 3 9 1 -2
BITMAP
80
40
40
40
20
40
40
40
80
ENDCHAR

STARTCHAR asciitilde
ENCODING 126
SWIDTH 583 0
DWIDTH 6 0
BBX 6 2 0 3
BITMAP
74
B8
ENDCHAR

STARTCHAR space
ENCODING 160
SWIDTH 250 0
DWIDTH 3 0
BBX 0 0 0 0
BITMAP
ENDCHAR

STARTCHAR exclamdown
ENCODING 161
SWIDTH 333 0
DWIDTH 3 0
BBX 4 7 0 -2
BITMAP
30
00
60
60
60
C0
C0
ENDCHAR

STARTCHAR cent
ENCODING 162
SWIDTH 531 0
DWIDTH 5 0
BBX 6 9 0 -2
BITMAP
08
08
38
6C
C0
D8
70
40
40
ENDCHAR

STARTCHAR sterling
ENCODING 163
SWIDTH 510 0
DWIDTH 5 0
BBX 5 7 0 0
BITMAP
38
68
60
F0
60
E8
F0
ENDCHAR

STARTCHAR currency
ENCODING 164
SWIDTH 667 0
DWIDTH 7 0
BBX 5 5 1 1
BITMAP
A8
70
D8
70
A8
ENDCHAR

STARTCHAR yen
ENCODING 165
SWIDTH 625 0
DWIDTH 6 0
BBX 8 7 1 0
BITMAP
E7
66
FE
38
FC
60
F0
ENDCHAR

STARTCHAR brokenbar
ENCODING 166
SWIDTH 611 0
DWIDTH 6 0
BBX 1 9 3 -2
BITMAP
80
80
80
80
00
80
80
80
80
ENDCHAR

STARTCHAR section
ENCODING 167
SWIDTH 510 0
DWIDTH 5 0
BBX 7 9 -1 -2
BITMAP
1C
36
78
58
6C
34
3C
D8
70
ENDCHAR

STARTCHAR dieresis
ENCODING 168
SWIDTH 333 0
DWIDTH 3 0
BBX 3 1 1 6
BITMAP
A0
ENDCHAR

STARTCHAR copyright
ENCODING 169
SWIDTH 740 0
DWIDTH 7 0
BBX 7 7 1 0
BITMAP
38
44
9A
A2
9A
44
38
ENDCHAR

STARTCHAR ordfeminine
ENCODING 170
SWIDTH 375 0
DWIDTH 4 0
BBX 3 3 1 4
BITMAP
E0
60
A0
ENDCHAR

STARTCHAR guillemotleft
ENCODING 171
SWIDTH 531 0
DWIDTH 5 0
BBX 7 5 0 0
BITMAP
36
6C
D8
6C
24
ENDCHAR

STARTCHAR logicalnot
ENCODING 172
SWIDTH 668 0
DWIDTH 7 0
BBX 5 3 2 2
BITMAP
F8
08
08
ENDCHAR

STARTCHAR hyphen
ENCODING 173
SWIDTH 344 0
DWIDTH 3 0
BBX 2 1 1 2
BITMAP
C0
ENDCHAR

STARTCHAR registered
ENCODING 174
SWIDTH 740 0
DWIDTH 7 0
BBX 7 7 1 0
BITMAP
38
44
BA
B2
AA
44
38
ENDCHAR

STARTCHAR macron
ENCODING 175
SWIDTH 333 0
DWIDTH 3 0
BBX 3 1 0 6
BITMAP
E0
ENDCHAR

STARTCHAR degree
ENCODING 176
SWIDTH 396 0
DWIDTH 4 0
BBX 4 4 1 3
BITMAP
60
90
90
60
ENDCHAR

STARTCHAR plusminus
ENCODING 177
SWIDTH 668 0
DWIDTH 7 0
BBX 5 7 1 0
BITMAP
20
20
F8
20
20
00
F8
ENDCHAR

STARTCHAR twosuperior
ENCODING 178
SWIDTH 333 0
DWIDTH 3 0
BBX 3 4 1 3
BITMAP
60
20
40
E0
ENDCHAR

STARTCHAR threesuperior
ENCODING 179
SWIDTH 333 0
DWIDTH 3 0
BBX 3 4 1 3
BITMAP
60
60
20
C0
ENDCHAR

STARTCHAR acute
ENCODING 180
SWIDTH 333 0
DWIDTH 3 0
BBX 3 2 1 5
BITMAP
60
C0
ENDCHAR

STARTCHAR mu
ENCODING 181
SWIDTH 615 0
DWIDTH 6 0
BBX 7 7 -1 -2
BITMAP
36
36
6C
6C
76
C0
C0
ENDCHAR

STARTCHAR paragraph
ENCODING 182
SWIDTH 552 0
DWIDTH 6 0
BBX 6 9 1 -2
BITMAP
3C
68
E8
E8
E8
28
28
28
28
ENDCHAR

STARTCHAR periodcentered
ENCODING 183
SWIDTH 333 0
DWIDTH 3 0
BBX 2 1 1 3
BITMAP
C0
ENDCHAR

STARTCHAR cedilla
ENCODING 184
SWIDTH 333 0
DWIDTH 3 0
BBX 4 2 -2 -2
BITMAP
30
E0
ENDCHAR

STARTCHAR onesuperior
ENCODING 185
SWIDTH 333 0
DWIDTH 3 0
BBX 2 4 2 3
BITMAP
40
40
80
80
ENDCHAR

STARTCHAR ordmasculine
ENCODING 186
SWIDTH 375 0
DWIDTH 4 0
BBX 3 4 1 3
BITMAP
60
A0
A0
C0
ENDCHAR

STARTCHAR guillemotright
ENCODING 187
SWIDTH 531 0
DWIDTH 5 0
BBX 7 5 0 0
BITMAP
48
6C
36
6C
D8
ENDCHAR

STARTCHAR onequarter
ENCODING 188
SWIDTH 927 0
DWIDTH 9 0
BBX 7 7 2 0
BITMAP
42
44
88
92
24
4E
84
ENDCHAR

STARTCHAR onehalf
ENCODING 189
SWIDTH 927 0
DWIDTH 9 0
BBX 7 7 2 0
BITMAP
42
44
88
96
26
42
8C
ENDCHAR

STARTCHAR threequarters
ENCODING 190
SWIDTH 927 0
DWIDTH 9 0
BBX 7 7 2 0
BITMAP
62
64
28
D2
24
4E
84
ENDCHAR

STARTCHAR questiondown
ENCODING 191
SWIDTH 542 0
DWIDTH 5 0
BBX 4 7 0 -2
BITMAP
30
00
20
60
C0
D0
E0
ENDCHAR

STARTCHAR Agrave
ENCODING 192
SWIDTH 646 0
DWIDTH 6 0
BBX 8 10 -1 0
BITMAP
0C
06
00
1F
0E
1E
36
3E
66
E7
ENDCHAR

STARTCHAR Aacute
ENCODING 193
SWIDTH 646 0
DWIDTH 6 0
BBX 8 10 -1 0
BITMAP
03
06
00
1F
0E
1E
36
3E
66
E7
ENDCHAR

STARTCHAR Acircumflex
ENCODING 194
SWIDTH 646 0
DWIDTH 6 0
BBX 8 10 -1 0
BITMAP
03
05
00
1F
0E
1E
36
3E
66
E7
ENDCHAR

STARTCHAR Atilde
ENCODING 195
SWIDTH 646 0
DWIDTH 6 0
BBX 9 10 -1 0
BITMAP
0680
0B00
0000
1F00
0E00
1E00
3600
3E00
6600
E700
ENDCHAR

STARTCHAR Adieresis
ENCODING 196
SWIDTH 646 0
DWIDTH 6 0
BBX 9 10 -1 0
BITMAP
0D80
0D80
0000
1F00
0E00
1E00
3600
3E00
6600
E700
ENDCHAR

STARTCHAR Aring
ENCODING 197
SWIDTH 646 0
DWIDTH 6 0
BBX 8 10 -1 0
BITMAP
04
0A
04
1F
0E
1E
36
3E
66
E7
ENDCHAR

STARTCHAR AE
ENCODING 198
SWIDTH 927 0
DWIDTH 9 0
BBX 12 7 -1 0
BITMAP
1FF0
0DB0
1B00
1F80
3300
6660
EFC0
ENDCHAR

STARTCHAR Ccedilla
ENCODING 199
SWIDTH 771 0
DWIDTH 8 0
BBX 8 9 1 -2
BITMAP
3F
63
C0
C0
C0
C6
7C
30
E0
ENDCHAR

STARTCHAR Egrave
ENCODING 200
SWIDTH 635 0
DWIDTH 6 0
BBX 8 10 0 0
BITMAP
18
0C
00
3F
1B
30
3C
30
66
FC
ENDCHAR

STARTCHAR Eacute
ENCODING 201
SWIDTH 635 0
DWIDTH 6 0
BBX 8 10 0 0
BITMAP
03
06
00
3F
1B
30
3C
30
66
FC
ENDCHAR

STARTCHAR Ecircumflex
ENCODING 202
SWIDTH 635 0
DWIDTH 6 0
BBX 8 10 0 0
BITMAP
06
0A
00
3F
1B
30
3C
30
66
FC
ENDCHAR

STARTCHAR Edieresis
ENCODING 203
SWIDTH 635 0
DWIDTH 6 0
BBX 8 10 0 0
BITMAP
1B
1B
00
3F
1B
30
3C
30
66
FC
ENDCHAR

STARTCHAR Igrave
ENCODING 204
SWIDTH 396 0
DWIDTH 4 0
BBX 6 10 0 0
BITMAP
30
18
00
3C
18
30
30
30
60
F0
ENDCHAR

STARTCHAR Iacute
ENCODING 205
SWIDTH 396 0
DWIDTH 4 0
BBX 6 10 0 0
BITMAP
0C
18
00
3C
18
30
30
30
60
F0
ENDCHAR

STARTCHAR Icircumflex
ENCODING 206
SWIDTH 396 0
DWIDTH 4 0
BBX 6 10 0 0
BITMAP
0C
14
00
3C
18
30
30
30
60
F0
ENDCHAR

STARTCHAR Idieresis
ENCODING 207
SWIDTH 396 0
DWIDTH 4 0
BBX 7 10 0 0
BITMAP
36
36
00
3C
18
30
30
30
60
F0
ENDCHAR

STARTCHAR Eth
ENCODING 208
SWIDTH 760 0
DWIDTH 8 0
BBX 9 7 0 0
BITMAP
3F00
1980
3180
7B00
3300
6600
FC00
ENDCHAR

STARTCHAR Ntilde
ENCODING 209
SWIDTH 792 0
DWIDTH 8 0
BBX 11 10 -1 0
BITMAP
0680
0B00
0000
39E0
18C0
3D80
3580
3780
6300
F300
ENDCHAR

STARTCHAR Ograve
ENCODING 210
SWIDTH 823 0
DWIDTH 8 0
BBX 8 10 1 0
BITMAP
18
0C
00
3E
63
C3
C3
C3
C6
7C
ENDCHAR

STARTCHAR Oacute
ENCODING 211
SWIDTH 823 0
DWIDTH 8 0
BBX 8 10 1 0
BITMAP
06
0C
00
3E
63
C3
C3
C3
C6
7C
ENDCHAR

STARTCHAR Ocircumflex
ENCODING 212
SWIDTH 823 0
DWIDTH 8 0
BBX 8 10 1 0
BITMAP
0C
14
00
3E
63
C3
C3
C3
C6
7C
ENDCHAR

STARTCHAR Otilde
ENCODING 213
SWIDTH 823 0
DWIDTH 8 0
BBX 8 10 1 0
BITMAP
0D
16
00
3E
63
C3
C3
C3
C6
7C
ENDCHAR

STARTCHAR Odieresis
ENCODING 214
SWIDTH 823 0
DWIDTH 8 0
BBX 8 10 1 0
BITMAP
36
36
00
3E
63
C3
C3
C3
C6
7C
ENDCHAR

STARTCHAR multiply
ENCODING 215
SWIDTH 667 0
DWIDTH 7 0
BBX 6 5 1 1
BITMAP
CC
78
30
78
CC
ENDCHAR

STARTCHAR Oslash
ENCODING 216
SWIDTH 823 0
DWIDTH 8 0
BBX 8 9 1 -1
BITMAP
03
3E
67
CF
DB
F3
E6
7C
C0
ENDCHAR

STARTCHAR Ugrave
ENCODING 217
SWIDTH 708 0
DWIDTH 7 0
BBX 9 10 1 0
BITMAP
1800
0C00
0000
7B80
3300
6600
6600
CC00
CC00
7800
ENDCHAR

STARTCHAR Uacute
ENCODING 218
SWIDTH 708 0
DWIDTH 7 0
BBX 9 10 1 0
BITMAP
0300
0600
0000
7B80
3300
6600
6600
CC00
CC00
7800
ENDCHAR

STARTCHAR Ucircumflex
ENCODING 219
SWIDTH 708 0
DWIDTH 7 0
BBX 9 10 1 0
BITMAP
0600
0A00
0000
7B80
3300
6600
6600
CC00
CC00
7800
ENDCHAR

STARTCHAR Udieresis
ENCODING 220
SWIDTH 708 0
DWIDTH 7 0
BBX 9 10 1 0
BITMAP
1B00
1B00
0000
7B80
3300
6600
6600
CC00
CC00
7800
ENDCHAR

STARTCHAR Yacute
ENCODING 221
SWIDTH 625 0
DWIDTH 6 0
BBX 8 10 1 0
BITMAP
0C
18
00
E7
66
6C
38
30
60
F0
ENDCHAR

STARTCHAR Thorn
ENCODING 222
SWIDTH 646 0
DWIDTH 6 0
BBX 7 7 0 0
BITMAP
3C
18
3C
36
66
7C
F0
ENDCHAR

STARTCHAR germandbls
ENCODING 223
SWIDTH 615 0
DWIDTH 6 0
BBX 8 7 -1 0
BITMAP
1E
33
36
6C
66
66
EC
ENDCHAR

STARTCHAR agrave
ENCODING 224
SWIDTH 573 0
DWIDTH 6 0
BBX 6 8 0 0
BITMAP
30
18
00
78
0C
7C
D8
6C
ENDCHAR

STARTCHAR aacute
ENCODING 225
SWIDTH 573 0
DWIDTH 6 0
BBX 6 8 0 0
BITMAP
18
30
00
78
0C
7C
D8
6C
ENDCHAR

STARTCHAR acircumflex
ENCODING 226
SWIDTH 573 0
DWIDTH 6 0
BBX 6 8 0 0
BITMAP
18
28
00
78
0C
7C
D8
6C
ENDCHAR

STARTCHAR atilde
ENCODING 227
SWIDTH 573 0
DWIDTH 6 0
BBX 6 8 0 0
BITMAP
34
58
00
78
0C
7C
D8
6C
ENDCHAR

STARTCHAR adieresis
ENCODING 228
SWIDTH 573 0
DWIDTH 6 0
BBX 6 8 0 0
BITMAP
6C
6C
00
78
0C
7C
D8
6C
ENDCHAR

STARTCHAR aring
ENCODING 229
SWIDTH 573 0
DWIDTH 6 0
BBX 6 9 0 0
BITMAP
10
28
10
00
78
0C
7C
D8
6C
ENDCHAR

STARTCHAR ae
ENCODING 230
SWIDTH 844 0
DWIDTH 8 0
BBX 9 5 0 0
BITMAP
7700
1D80
7F80
DC00
7700
ENDCHAR

STARTCHAR ccedilla
ENCODING 231
SWIDTH 531 0
DWIDTH 5 0
BBX 7 7 -1 -2
BITMAP
1C
36
60
6C
38
30
E0
ENDCHAR

STARTCHAR egrave
ENCODING 232
SWIDTH 552 0
DWIDTH 6 0
BBX 6 8 0 0
BITMAP
30
18
00
38
6C
FC
C0
78
ENDCHAR

STARTCHAR eacute
ENCODING 233
SWIDTH 552 0
DWIDTH 6 0
BBX 6 8 0 0
BITMAP
0C
18
00
38
6C
FC
C0
78
ENDCHAR

STARTCHAR ecircumflex
ENCODING 234
SWIDTH 552 0
DWIDTH 6 0
BBX 6 8 0 0
BITMAP
0C
14
00
38
6C
FC
C0
78
ENDCHAR

STARTCHAR edieresis
ENCODING 235
SWIDTH 552 0
DWIDTH 6 0
BBX 6 8 0 0
BITMAP
6C
6C
00
38
6C
FC
C0
78
ENDCHAR

STARTCHAR igrave
ENCODING 236
SWIDTH 333 0
DWIDTH 3 0
BBX 4 8 -1 0
BITMAP
60
30
00
70
30
30
60
F0
ENDCHAR

STARTCHAR iacute
ENCODING 237
SWIDTH 333 0
DWIDTH 3 0
BBX 5 8 -1 0
BITMAP
18
30
00
70
30
30
60
F0
ENDCHAR

STARTCHAR icircumflex
ENCODING 238
SWIDTH 333 0
DWIDTH 3 0
BBX 5 8 -1 0
BITMAP
18
28
00
70
30
30
60
F0
ENDCHAR

STARTCHAR idieresis
ENCODING 239
SWIDTH 333 0
DWIDTH 3 0
BBX 6 8 -1 0
BITMAP
6C
6C
00
70
30
30
60
F0
ENDCHAR

STARTCHAR eth
ENCODING 240
SWIDTH 635 0
DWIDTH 6 0
BBX 6 9 0 0
BITMAP
24
18
38
0C
3C
6C
CC
D8
70
ENDCHAR

STARTCHAR ntilde
ENCODING 241
SWIDTH 604 0
DWIDTH 6 0
BBX 6 8 0 0
BITMAP
34
58
00
D8
6C
6C
D8
DC
ENDCHAR

STARTCHAR ograve
ENCODING 242
SWIDTH 573 0
DWIDTH 6 0
BBX 6 8 0 0
BITMAP
30
18
00
38
6C
CC
D8
70
ENDCHAR

STARTCHAR oacute
ENCODING 243
SWIDTH 573 0
DWIDTH 6 0
BBX 6 8 0 0
BITMAP
0C
18
00
38
6C
CC
D8
70
ENDCHAR

STARTCHAR ocircumflex
ENCODING 244
SWIDTH 573 0
DWIDTH 6 0
BBX 6 8 0 0
BITMAP
18
28
00
38
6C
CC
D8
70
ENDCHAR

STARTCHAR otilde
ENCODING 245
SWIDTH 573 0
DWIDTH 6 0
BBX 7 8 0 0
BITMAP
1A
2C
00
38
6C
CC
D8
70
ENDCHAR

STARTCHAR odieresis
ENCODING 246
SWIDTH 573 0
DWIDTH 6 0
BBX 7 8 0 0
BITMAP
36
36
00
38
6C
CC
D8
70
ENDCHAR

STARTCHAR divide
ENCODING 247
SWIDTH 668 0
DWIDTH 7 0
BBX 5 5 1 1
BITMAP
20
00
F8
00
20
ENDCHAR

STARTCHAR oslash
ENCODING 248
SWIDTH 573 0
DWIDTH 6 0
BBX 6 7 0 -1
BITMAP
0C
38
6C
FC
D8
70
C0
ENDCHAR

STARTCHAR ugrave
ENCODING 249
SWIDTH 604 0
DWIDTH 6 0
BBX 6 8 0 0
BITMAP
60
30
00
EC
6C
D8
D8
6C
ENDCHAR

STARTCHAR uacute
ENCODING 250
SWIDTH 604 0
DWIDTH 6 0
BBX 6 8 0 0
BITMAP
0C
18
00
EC
6C
D8
D8
6C
ENDCHAR

STARTCHAR ucircumflex
ENCODING 251
SWIDTH 604 0
DWIDTH 6 0
BBX 6 8 0 0
BITMAP
18
28
00
EC
6C
D8
D8
6C
ENDCHAR

STARTCHAR udieresis
ENCODING 252
SWIDTH 604 0
DWIDTH 6 0
BBX 6 8 0 0
BITMAP
6C
6C
00
EC
6C
D8
D8
6C
ENDCHAR

STARTCHAR yacute
ENCODING 253
SWIDTH 563 0
DWIDTH 6 0
BBX 8 10 -1 -2
BITMAP
06
0C
00
77
36
34
38
30
30
E0
ENDCHAR

STARTCHAR thorn
ENCODING 254
SWIDTH 604 0
DWIDTH 6 0
BBX 8 9 -2 -2
BITMAP
1C
0C
1E
1B
1B
36
3C
60
F0
ENDCHAR

STARTCHAR ydieresis
ENCODING 255
SWIDTH 563 0
DWIDTH 6 0
BBX 8 10 -1 -2
BITMAP
36
36
00
77
36
34
38
30
30
E0
ENDCHAR
ENDFONT
